<svg width="660" height="702" viewBox="0 0 660 702" fill="none" xmlns="http://www.w3.org/2000/svg">
<g clip-path="url(#clip0_14_3651)">
<path d="M15.4463 337.231V7.53589H126.463V251.039H275.113V337.231H15.4463Z" fill="url(#paint0_linear_14_3651)"/>
<path d="M473.626 344.767C446.975 344.767 422.27 340.528 399.528 332.05C376.786 323.572 357.11 311.554 340.484 296.011C323.857 280.468 310.929 262.181 301.683 241.132C292.437 220.1 287.798 197.184 287.798 172.367C287.798 147.551 292.421 124.245 301.683 103.375C310.929 82.4887 323.873 64.2824 340.484 48.7397C357.11 33.1969 376.786 21.1947 399.528 12.7006C422.27 4.2227 446.958 -0.0162354 473.626 -0.0162354C500.293 -0.0162354 525.371 4.2227 547.951 12.7006C570.53 21.1784 590.125 33.1969 606.752 48.7397C623.378 64.2824 636.307 82.4887 645.569 103.375C654.815 124.261 659.438 147.258 659.438 172.367C659.438 197.476 654.815 220.1 645.569 241.132C636.323 262.181 623.378 280.468 606.752 296.011C590.125 311.554 570.53 323.556 547.951 332.05C525.371 340.528 500.601 344.767 473.626 344.767ZM473.626 254.807C483.975 254.807 493.61 252.923 502.548 249.155C511.486 245.387 519.32 239.979 526.068 232.914C532.816 225.849 538.072 217.209 541.835 207.01C545.598 196.81 547.48 185.263 547.48 172.4C547.48 159.537 545.598 147.989 541.835 137.79C538.072 127.59 532.816 118.95 526.068 111.885C519.32 104.82 511.486 99.3958 502.548 95.6441C493.61 91.8924 483.975 89.9921 473.626 89.9921C463.277 89.9921 453.641 91.8761 444.704 95.6441C435.766 99.412 427.931 104.82 421.183 111.885C414.435 118.95 409.18 127.59 405.416 137.79C401.653 147.989 399.771 159.537 399.771 172.4C399.771 185.263 401.653 196.81 405.416 207.01C409.18 217.209 414.435 225.849 421.183 232.914C427.931 239.979 435.766 245.404 444.704 249.155C453.641 252.907 463.293 254.807 473.626 254.807Z" fill="url(#paint1_linear_14_3651)"/>
<path d="M165.767 701.292C141.873 701.292 119.861 697.557 99.7632 690.102C79.6653 682.648 62.2277 672.01 47.4666 658.221C32.7054 644.432 21.2534 628.094 13.0942 609.238C4.935 590.382 0.863525 569.544 0.863525 546.742C0.863525 523.939 4.935 503.102 13.0942 484.246C21.2534 465.39 32.7703 449.051 47.6774 435.263C62.5846 421.474 80.2168 410.836 100.607 403.381C120.996 395.927 143.414 392.191 167.875 392.191C197.122 392.191 223.189 397.112 246.109 406.97C269.03 416.829 287.927 430.894 302.834 449.197L239.15 505.359C229.872 494.656 219.815 486.568 208.996 481.079C198.176 475.589 186.156 472.845 172.936 472.845C161.971 472.845 152.06 474.534 143.203 477.912C134.346 481.29 126.82 486.211 120.64 492.691C114.459 499.171 109.674 506.902 106.3 515.916C102.926 524.93 101.239 535.194 101.239 546.742C101.239 558.289 102.926 567.79 106.3 576.934C109.674 586.078 114.459 593.89 120.64 600.37C126.82 606.85 134.2 611.836 142.781 615.361C151.362 618.885 160.981 620.639 171.671 620.639C182.912 620.639 193.878 618.739 204.567 614.938C215.257 611.138 226.644 604.593 238.729 595.303L294.399 663.71C276.41 675.81 255.874 685.1 232.824 691.58C209.774 698.06 187.422 701.292 165.767 701.292ZM207.941 651.042V538.719H294.399V663.71L207.941 651.042Z" fill="url(#paint2_linear_14_3651)"/>
<path d="M491.777 701.292C467.883 701.292 445.741 697.492 425.352 689.891C404.962 682.29 387.33 671.522 372.422 657.587C357.515 643.653 345.917 627.249 337.628 608.393C329.339 589.537 325.187 568.976 325.187 546.742C325.187 524.508 329.339 503.605 337.628 484.879C345.917 466.153 357.515 449.831 372.422 435.896C387.33 421.961 404.962 411.193 425.352 403.592C445.741 395.991 467.883 392.191 491.777 392.191C515.67 392.191 538.169 395.991 558.413 403.592C578.657 411.193 596.224 421.961 611.131 435.896C626.038 449.831 637.636 466.153 645.925 484.879C654.214 503.605 658.367 524.215 658.367 546.742C658.367 569.268 654.214 589.537 645.925 608.393C637.636 627.249 626.038 643.653 611.131 657.587C596.224 671.522 578.657 682.29 558.413 689.891C538.169 697.492 515.962 701.292 491.777 701.292ZM491.777 620.639C501.055 620.639 509.701 618.95 517.714 615.572C525.727 612.193 532.751 607.337 538.802 601.003C544.852 594.669 549.556 586.922 552.93 577.779C556.304 568.635 557.991 558.289 557.991 546.742C557.991 535.194 556.304 524.849 552.93 515.705C549.556 506.561 544.852 498.814 538.802 492.48C532.751 486.146 525.727 481.29 517.714 477.912C509.701 474.534 501.055 472.845 491.777 472.845C482.498 472.845 473.853 474.534 465.839 477.912C457.826 481.29 450.802 486.146 444.752 492.48C438.702 498.814 433.997 506.561 430.623 515.705C427.25 524.849 425.563 535.194 425.563 546.742C425.563 558.289 427.25 568.635 430.623 577.779C433.997 586.922 438.702 594.669 444.752 601.003C450.802 607.337 457.826 612.193 465.839 615.572C473.853 618.95 482.498 620.639 491.777 620.639Z" fill="url(#paint3_linear_14_3651)"/>
</g>
<defs>
<linearGradient id="paint0_linear_14_3651" x1="59.1133" y1="-78.7858" x2="103.094" y2="111.114" gradientUnits="userSpaceOnUse">
<stop offset="0.44" stop-color="#9980FF"/>
<stop offset="1" stop-color="#FE4AE2"/>
</linearGradient>
<linearGradient id="paint1_linear_14_3651" x1="273.393" y1="167.738" x2="732.06" y2="178.35" gradientUnits="userSpaceOnUse">
<stop stop-color="#A67CE6"/>
<stop offset="0.44" stop-color="#4AAAF1"/>
<stop offset="1" stop-color="#0FD0C1"/>
</linearGradient>
<linearGradient id="paint2_linear_14_3651" x1="69.365" y1="392.776" x2="377.797" y2="872.939" gradientUnits="userSpaceOnUse">
<stop offset="0.11" stop-color="#A67CE6"/>
<stop offset="0.44" stop-color="#4AAAF1"/>
<stop offset="1" stop-color="#0FD0C1"/>
</linearGradient>
<linearGradient id="paint3_linear_14_3651" x1="288.787" y1="185.198" x2="567.485" y2="680.29" gradientUnits="userSpaceOnUse">
<stop offset="0.11" stop-color="#A67CE6"/>
<stop offset="0.44" stop-color="#4AAAF1"/>
<stop offset="1" stop-color="#0FD0C1"/>
</linearGradient>
<clipPath id="clip0_14_3651">
<rect width="658.574" height="701.292" fill="white" transform="translate(0.863525)"/>
</clipPath>
</defs>
</svg>
